<?xml version="1.0" encoding="UTF-8"?>
<svg version="1.1" xmlns="http://www.w3.org/2000/svg" width="32" height="32">
<path d="M0 0 C3.3 0 6.6 0 10 0 C10.61875 2.0728125 10.61875 2.0728125 11.25 4.1875 C12.29218677 7.38921801 13.07445022 9.09099471 15.25 11.75 C17 14 17 14 17.0625 16.3125 C15.79889939 19.50866625 14.09050012 22.19426571 12.2109375 25.0625 C10.82443721 27.28090047 9.84963231 29.52834236 9 32 C6.03 32 3.06 32 0 32 C-0.19335938 31.38511719 -0.38671875 30.77023438 -0.5859375 30.13671875 C-0.84632812 29.32847656 -1.10671875 28.52023438 -1.375 27.6875 C-1.63023438 26.88699219 -1.88546875 26.08648438 -2.1484375 25.26171875 C-2.98831811 22.77275472 -2.98831811 22.77275472 -5 20 C-5.65745193 13.42548068 -4.44329013 10.53013263 -1 5 C-0.22514168 2.22861403 -0.22514168 2.22861403 0 0 Z " fill="#DBAF4E" transform="translate(11,0)"/>
<path d="M0 0 C3.45669582 -0.31424507 5.39901677 -0.37956836 8.375 1.5 C10.65984914 5.01515252 10.80253974 7.92042297 10 12 C8.5 14.5 8.5 14.5 6 16 C1.97901723 16.791013 -0.96411027 16.62153384 -4.5 14.5 C-6.68405234 10.85991277 -6.28023018 8.20345267 -6 4 C-4 4 -2 4 0 4 C0.33 5.65 0.66 7.3 1 9 C1.66 8.67 2.32 8.34 3 8 C2.34 6.35 1.68 4.7 1 3 C1.66 3 2.32 3 3 3 C3 2.34 3 1.68 3 1 C1.68 1.33 0.36 1.66 -1 2 C-0.67 1.34 -0.34 0.68 0 0 Z " fill="#FAFAFA" transform="translate(14,8)"/>
<path d="M0 0 C3.3 0 6.6 0 10 0 C9.67 2.31 9.34 4.62 9 7 C6.36 7 3.72 7 1 7 C0.67 4.69 0.34 2.38 0 0 Z " fill="#693F3E" transform="translate(11,0)"/>
<path d="M0 0 C2.64 0 5.28 0 8 0 C8.38133299 1.9914056 8.71325582 3.99279077 9 6 C8 7 8 7 5.93359375 7.09765625 C5.10988281 7.08605469 4.28617188 7.07445312 3.4375 7.0625 C2.61121094 7.05347656 1.78492188 7.04445313 0.93359375 7.03515625 C0.29550781 7.02355469 -0.34257812 7.01195312 -1 7 C-0.67 4.69 -0.34 2.38 0 0 Z " fill="#6B403F" transform="translate(12,25)"/>
<path d="M0 0 C0 0.66 0 1.32 0 2 C-0.66 2 -1.32 2 -2 2 C-1.67 3.32 -1.34 4.64 -1 6 C0.32 6.33 1.64 6.66 3 7 C1.35 7.33 -0.3 7.66 -2 8 C-2.33 6.35 -2.66 4.7 -3 3 C-3.99 3.33 -4.98 3.66 -6 4 C-6 3.34 -6 2.68 -6 2 C-6.99 2.495 -6.99 2.495 -8 3 C-8.020625 4.27875 -8.04125 5.5575 -8.0625 6.875 C-8.07410156 7.59429687 -8.08570313 8.31359375 -8.09765625 9.0546875 C-8.12649242 11.08185404 -8.12649242 11.08185404 -7 13 C-7.99 13 -8.98 13 -10 13 C-11.60314616 9.79370768 -11.48027102 6.47853436 -11 3 C-8.03125145 -1.86874762 -5.19627613 -1.19914065 0 0 Z " fill="#E4B950" transform="translate(17,9)"/>
<path d="M0 0 C3.3 0.66 6.6 1.32 10 2 C10 1.34 10 0.68 10 0 C13 1 13 1 14.75 4.25 C15.97360642 7.92081925 16.19463679 9.41608962 15 13 C14.67 13 14.34 13 14 13 C13.71125 11.88625 13.4225 10.7725 13.125 9.625 C12.30758671 5.99708908 12.30758671 5.99708908 10 4 C7.33050591 3.75684344 7.33050591 3.75684344 4.375 3.875 C3.37210938 3.89304687 2.36921875 3.91109375 1.3359375 3.9296875 C0.17964844 3.96449219 0.17964844 3.96449219 -1 4 C-0.67 2.68 -0.34 1.36 0 0 Z " fill="#D4A848" transform="translate(10,5)"/>
<path d="M0 0 C0.763125 0.20625 1.52625 0.4125 2.3125 0.625 C2.3125 1.285 2.3125 1.945 2.3125 2.625 C1.6525 2.625 0.9925 2.625 0.3125 2.625 C0.6425 3.945 0.9725 5.265 1.3125 6.625 C2.6325 6.955 3.9525 7.285 5.3125 7.625 C3.6625 7.955 2.0125 8.285 0.3125 8.625 C-0.0175 6.975 -0.3475 5.325 -0.6875 3.625 C-1.6775 3.955 -2.6675 4.285 -3.6875 4.625 C-3.6875 3.965 -3.6875 3.305 -3.6875 2.625 C-4.3475 2.295 -5.0075 1.965 -5.6875 1.625 C-2.6875 -0.375 -2.6875 -0.375 0 0 Z " fill="#C2BFBB" transform="translate(14.6875,8.375)"/>
<path d="M0 0 C0.99 0.33 1.98 0.66 3 1 C2.44855089 5.08072342 2.08669204 5.91330796 -1 9 C-0.67 6.03 -0.34 3.06 0 0 Z " fill="#D8A22D" transform="translate(25,13)"/>
<path d="M0 0 C3.3 0.99 6.6 1.98 10 3 C10 3.33 10 3.66 10 4 C7 4 4 4 1 4 C0.67 2.68 0.34 1.36 0 0 Z " fill="#C69637" transform="translate(8,22)"/>
</svg>
